<svg xmlns="http://www.w3.org/2000/svg" viewBox="0 0 140 140">
<rect width="140" height="140" rx="28" fill="#f8f3e7"/>
<path d="M24 109c13-10 28-15 46-15s33 5 46 15V39c-13-9-28-14-46-14S37 30 24 39Z" fill="#0f6f5c" opacity=".12"/>
<g fill="none" stroke="#0f6f5c" stroke-width="5" stroke-linecap="round" stroke-linejoin="round"><path d="M34 35c18-7 32-4 36 4v59c-4-8-18-11-36-4Z"/><path d="M106 35c-18-7-32-4-36 4v59c4-8 18-11 36-4Z"/><path d="M70 39v59"/></g>
<path d="M28 112c12-8 26-12 42-12s30 4 42 12" fill="none" stroke="#d3a33b" stroke-width="5" stroke-linecap="round"/>
</svg>