<svg xmlns="http://www.w3.org/2000/svg" viewBox="0 0 140 140">
<rect width="140" height="140" rx="28" fill="#f8f3e7"/>
<path d="M24 109c13-10 28-15 46-15s33 5 46 15V39c-13-9-28-14-46-14S37 30 24 39Z" fill="#0f6f5c" opacity=".12"/>
<g fill="none" stroke="#0f6f5c" stroke-width="5" stroke-linecap="round" stroke-linejoin="round"><path d="M31 61c18-8 31-22 39-42 8 20 21 34 39 42-17 6-30 18-39 36-9-18-22-30-39-36Z"/><path d="M70 25v68"/></g>
<path d="M28 112c12-8 26-12 42-12s30 4 42 12" fill="none" stroke="#d3a33b" stroke-width="5" stroke-linecap="round"/>
</svg>